<svg width="50" height="50" viewBox="0 0 50 50" fill="none" xmlns="http://www.w3.org/2000/svg">
<g clip-path="url(#clip0_4094_11636)">
<rect width="50" height="50" fill="#36AF48"/>
<path d="M21.8355 -2.49968C22.7347 -2.50538 23.6272 -2.43518 24.5127 -2.28957C25.3485 -2.15211 26.1848 -2.0189 27.0214 -1.88981C27.7922 -1.77086 28.573 -1.74685 29.3645 -1.81844C30.3124 -1.90413 31.2488 -1.83841 32.1704 -1.6213C32.9636 -1.43445 33.7619 -1.30765 34.5649 -1.24051C35.3808 -1.17229 36.201 -1.14629 37.0253 -1.16215C38.0266 -1.18138 38.97 -0.945478 39.8391 -0.456955C40.5873 -0.0364287 41.3266 0.401325 42.0571 0.856117C42.7883 1.31132 43.5086 1.78342 44.2178 2.2725C44.9248 2.76011 45.6228 3.26141 46.3121 3.77622C46.9263 4.23498 47.6028 4.60115 48.3446 4.87419C49.265 5.213 50.0844 5.71632 50.7964 6.3819C51.386 6.93298 52.0074 7.40782 52.6604 7.80876C53.1278 8.09575 53.5033 8.47975 53.7355 8.97111C53.9666 9.46047 54.0273 9.99653 53.9638 10.5447C53.8763 11.2998 53.9137 12.0555 54.0775 12.815C54.2994 13.8431 54.1876 14.8526 53.7499 15.816C53.4492 16.478 53.3501 17.1402 53.4408 17.8197C53.541 18.5713 53.7579 19.2853 54.0925 19.9648C54.4674 20.7262 54.843 21.4874 55.2184 22.2486C55.6188 23.0603 55.9282 23.8914 56.1454 24.741C56.3599 25.5799 56.5029 26.4471 56.5748 27.3411C56.6462 28.2303 56.6531 29.1199 56.5952 30.0092C56.5345 30.941 56.3395 31.8162 56.0043 32.6284C55.6395 33.5122 55.029 34.2405 54.2077 34.8133C53.7141 35.1576 53.4932 35.5737 53.4767 36.1224C53.4545 36.8603 53.5465 37.5974 53.7559 38.3363C54.009 39.2296 54.1371 40.1406 54.1394 41.0673C54.1415 41.9442 54.1004 42.8207 54.0167 43.6964C53.9395 44.5045 53.9208 45.3123 53.9608 46.1199C54.0063 47.0376 53.9376 47.9226 53.7504 48.772C53.5175 49.8288 52.845 50.5924 51.8431 51.0378C51.2416 51.3052 50.4124 51.7817 49.3434 52.4847C50.0099 53.6413 50.4305 54.6584 50.4952 55.4946C50.5635 56.3778 50.4578 57.2754 50.1906 58.1816C49.937 59.0416 49.6216 59.8655 49.2436 60.6526C48.7941 61.5886 48.067 62.2688 47.101 62.6743C46.3237 63.0005 45.5418 63.3369 44.7558 63.6829C43.8216 64.0942 42.8424 64.2282 41.8367 64.0797C41.0652 63.9658 40.295 63.9585 39.524 64.0578C38.627 64.1732 37.7263 64.2088 36.8223 64.1646C35.8403 64.1165 34.9162 63.8546 34.0603 63.38C33.3415 62.9814 32.6051 62.6177 31.8513 62.289C31.0225 61.9277 30.2334 61.4875 29.4847 60.969C28.6156 60.367 28.061 59.552 27.9454 58.5355C27.8928 58.073 27.8545 57.6814 27.8307 57.3671C26.618 57.5327 25.698 57.6915 25.0602 57.8418C24.2576 58.0308 23.6314 58.2217 23.1684 58.4097C22.9027 58.5175 22.665 58.6045 22.4767 58.6538C22.4668 58.6563 22.4557 58.6579 22.4443 58.6607C21.721 59.8493 21.2373 60.7576 20.9743 61.3997C20.5602 62.4105 19.8194 63.1042 18.7783 63.3835C18.0159 63.588 17.2285 63.8068 16.4162 64.0398C15.5736 64.2815 14.722 64.4821 13.8616 64.6417C12.9986 64.8017 12.1316 64.9155 11.2606 64.983C10.2672 65.06 9.30791 64.8744 8.39691 64.4351C7.7083 64.103 6.99086 63.9079 6.23976 63.8471C5.21182 63.764 4.30091 63.3895 3.53858 62.7212C2.87784 62.142 2.26983 61.4982 1.71453 60.7913C1.17028 60.0984 0.676815 59.3871 0.234542 58.6572C-0.0518947 58.1846 -0.206763 57.659 -0.146424 57.1036C-0.0864801 56.5522 0.174992 56.068 0.5452 55.6548C1.09759 55.0382 1.61972 54.4001 2.11145 53.7403C2.54144 53.1634 2.85781 52.7217 3.06886 52.4113C2.94953 52.3529 2.81261 52.2867 2.65647 52.2142C1.85712 51.8425 1.07995 51.4349 0.325296 50.9909C-0.447573 50.5362 -1.17927 50.0164 -1.86925 49.4323C-2.56044 48.8472 -3.16545 48.231 -3.67984 47.5827C-4.21877 46.9035 -4.64268 46.1213 -4.95688 45.2455C-5.28476 44.3316 -5.39368 43.4156 -5.25906 42.5106C-5.13889 41.7028 -4.93321 40.8751 -4.64523 40.0287C-4.36654 39.2096 -4.06451 38.3994 -3.73968 37.5982C-3.45429 36.8942 -3.29992 36.1997 -3.26846 35.5115C-3.24021 34.8933 -3.38847 34.2885 -3.73769 33.6819C-4.15308 32.9604 -4.58577 32.2556 -5.03616 31.5678C-5.58613 30.728 -5.86357 29.7928 -5.86591 28.783C-5.86794 27.8967 -5.81055 27.0192 -5.69338 26.1513C-5.56525 25.2023 -5.24333 24.311 -4.73349 23.4838C-4.31919 22.8116 -3.99175 22.1025 -3.75015 21.3557C-3.49479 20.5664 -3.27453 19.7759 -3.08944 18.9846C-2.9389 18.3408 -2.98417 17.7066 -3.23605 17.0597C-3.56854 16.2058 -3.81096 15.331 -3.96208 14.4365C-4.11883 13.5085 -4.11997 12.5933 -3.96058 11.6961C-3.79726 10.7767 -3.44149 9.91653 -2.90345 9.12034C-2.43455 8.42646 -1.98014 7.72346 -1.53965 7.01173C-1.10251 6.30544 -0.687137 5.58537 -0.294024 4.85123C0.228135 3.87609 1.06583 3.26169 2.15384 3.03958C2.97887 2.87115 3.7863 2.67022 4.57627 2.43769C5.33742 2.21364 6.07773 1.91629 6.79774 1.54484C7.60217 1.12984 8.4278 0.780836 9.27403 0.498278C10.1414 0.208655 11.0384 0.0223355 11.9632 -0.0616863C12.7066 -0.129208 13.403 -0.344958 14.0586 -0.711485C14.9101 -1.18754 15.819 -1.48786 16.7802 -1.60883C17.5885 -1.71053 18.3695 -1.87413 19.1233 -2.09892C20.0006 -2.36051 20.9057 -2.49377 21.8355 -2.49968ZM4.58076 53.1834L4.57926 53.1864C4.34565 53.5423 3.96967 54.0659 3.46129 54.748C2.93915 55.4486 2.38526 56.1261 1.7993 56.7802C1.60036 57.0023 1.54067 57.1696 1.52803 57.2858C1.51585 57.3979 1.53712 57.5559 1.67464 57.7829C2.0804 58.4525 2.53464 59.1084 3.03844 59.7497C3.53122 60.377 4.06825 60.9443 4.64857 61.4531C5.12727 61.8727 5.69238 62.1115 6.37539 62.1668C7.3353 62.2444 8.25445 62.4952 9.12793 62.9164C9.77892 63.2303 10.4418 63.356 11.1305 63.3027C11.9418 63.2398 12.7501 63.1335 13.5549 62.9842C14.3623 62.8345 15.1616 62.6462 15.9524 62.4193C16.7734 62.1838 17.5701 61.9627 18.3424 61.7555C18.8361 61.6231 19.1852 61.3234 19.416 60.7599C19.6746 60.1286 20.0878 59.3358 20.6437 58.3892C20.342 58.2849 19.9955 58.1385 19.61 57.9555C18.9016 57.6193 18.1646 57.38 17.3975 57.2369C16.5342 57.0758 15.6817 56.8777 14.8409 56.642C13.9584 56.3945 13.11 56.0414 12.2968 55.5844C11.6266 55.2078 10.9206 54.9615 10.1746 54.8433C9.24788 54.6965 8.36008 54.4192 7.5138 54.0123C6.91502 53.7244 5.95541 53.4367 4.59372 53.1629L4.58076 53.1834ZM47.2007 53.1759C46.4939 53.2526 45.7408 53.3807 44.9408 53.5612C44.1439 53.7409 43.356 53.9646 42.5772 54.2324C41.7228 54.5262 40.8509 54.7417 39.9623 54.8792C39.1407 55.0063 38.3245 55.1593 37.514 55.3379C36.6704 55.5237 35.8217 55.6856 34.9679 55.823C34.1787 55.95 33.4039 56.1453 32.6432 56.4099C31.8861 56.6732 30.8308 56.9087 29.5012 57.1241C29.52 57.4076 29.5582 57.8113 29.6189 58.3448C29.6707 58.8002 29.9041 59.2092 30.4431 59.5825C31.1027 60.0394 31.7963 60.4261 32.524 60.7434C33.3267 61.0934 34.1111 61.4807 34.8766 61.9052C35.5051 62.2537 36.1778 62.4451 36.9046 62.4807C37.7094 62.52 38.5107 62.4886 39.3091 62.3858C40.2334 62.2669 41.1588 62.2755 42.0826 62.4118C42.7722 62.5136 43.4312 62.4244 44.0777 62.1398C44.8723 61.7899 45.6629 61.4502 46.4492 61.1202C47.0466 60.8694 47.4597 60.4763 47.7258 59.9224C48.0633 59.2195 48.3466 58.4804 48.5755 57.7045C48.7906 56.9749 48.8667 56.2834 48.8158 55.6249C48.7773 55.1275 48.4696 54.3087 47.7607 53.1155C47.6066 53.132 47.42 53.1521 47.2007 53.1759ZM21.8459 -0.813796C21.072 -0.808873 20.3255 -0.698546 19.604 -0.483407C18.7591 -0.231446 17.8877 -0.0493121 16.9906 0.0635822C16.2464 0.157223 15.5446 0.388677 14.8798 0.760294C14.0191 1.24152 13.0952 1.52773 12.1158 1.61671C11.3179 1.68919 10.5487 1.84969 9.80708 2.09732C9.04427 2.35202 8.2985 2.66707 7.56965 3.04307C6.75639 3.46263 5.91684 3.80048 5.05148 4.0552C4.21489 4.30145 3.36115 4.51327 2.49043 4.69103C1.88272 4.81509 1.47109 5.12325 1.19045 5.64726C0.78077 6.41234 0.348166 7.16331 -0.10753 7.89959C-0.559852 8.63043 -1.02677 9.35211 -1.50823 10.0646C-1.92057 10.6748 -2.18203 11.3153 -2.30208 11.991C-2.42604 12.6888 -2.42769 13.4089 -2.30158 14.1555C-2.16982 14.9355 -1.95816 15.6991 -1.6668 16.4473C-1.29492 17.4023 -1.219 18.3837 -1.44939 19.3689C-1.64535 20.2067 -1.87849 21.0423 -2.148 21.8753C-2.43129 22.7508 -2.81574 23.5823 -3.30037 24.3686C-3.68946 24.9999 -3.92861 25.6674 -4.02441 26.3769C-4.13116 27.1677 -4.18384 27.9684 -4.18198 28.779C-4.1804 29.4658 -3.99658 30.0805 -3.62798 30.6435C-3.15971 31.3587 -2.70945 32.0909 -2.27814 32.84C-1.78062 33.7041 -1.54203 34.6255 -1.58602 35.5884C-1.62681 36.4812 -1.82682 37.3635 -2.17891 38.232C-2.49164 39.0034 -2.78222 39.7835 -3.05055 40.5722C-3.30957 41.3335 -3.48944 42.062 -3.59308 42.7586C-3.68224 43.358 -3.61674 43.993 -3.37168 44.6761C-3.11291 45.3973 -2.77411 46.0139 -2.36092 46.5347C-1.92315 47.0864 -1.3979 47.6236 -0.781702 48.1452C-0.164237 48.6679 0.48908 49.132 1.17848 49.5376C1.88609 49.9539 2.61544 50.3365 3.36605 50.6855C3.75869 50.868 4.07278 51.0233 4.29653 51.1481C4.40536 51.2088 4.51589 51.2749 4.60868 51.3433C4.64949 51.3733 4.7064 51.4194 4.76426 51.4785C6.25563 51.7706 7.43095 52.1025 8.24332 52.4931C8.94223 52.8292 9.67295 53.0572 10.4379 53.1784C11.3836 53.3282 12.2795 53.6414 13.1216 54.1146C13.8206 54.5075 14.5451 54.808 15.2957 55.0185C16.088 55.2406 16.8912 55.428 17.7057 55.5799C18.6163 55.7498 19.4922 56.0345 20.3315 56.4329C20.7021 56.6087 20.9974 56.731 21.2231 56.8072C21.3353 56.845 21.4221 56.8686 21.4859 56.882C21.5321 56.8917 21.5576 56.8938 21.5662 56.8945L22.0514 56.8671L22.9779 56.6809C23.4643 56.5114 24.0321 56.3522 24.6748 56.2008C25.539 55.9972 26.8019 55.7936 28.444 55.5869L28.47 55.5819L28.5094 55.5734L28.5363 55.568L28.5632 55.564C30.1973 55.324 31.3606 55.0716 32.0902 54.8178C32.9432 54.5211 33.8137 54.3013 34.7006 54.1586C35.5227 54.0262 36.3398 53.8703 37.1519 53.6914C37.9972 53.5052 38.8483 53.3458 39.705 53.2133C40.4946 53.0912 41.2695 52.8995 42.0302 52.6379C42.8666 52.3503 43.7136 52.11 44.5708 51.9167C45.4248 51.7241 46.2412 51.5844 47.0192 51.5C47.3903 51.4597 47.6696 51.4299 47.8564 51.4101C47.8821 51.4074 47.9063 51.4045 47.9287 51.4022C49.253 50.508 50.3357 49.8639 51.1594 49.4977C51.7199 49.2485 51.999 48.894 52.1059 48.4092C52.2584 47.717 52.3175 46.9825 52.2789 46.2033C52.2349 45.3141 52.2553 44.425 52.3402 43.5362C52.4187 42.715 52.4569 41.8931 52.4549 41.0713C52.4531 40.2992 52.347 39.5414 52.1358 38.796C51.8808 37.8961 51.7657 36.9869 51.7932 36.0715C51.8264 34.967 52.3328 34.066 53.2448 33.4299C53.8291 33.0223 54.2186 32.5408 54.448 31.9851C54.707 31.3577 54.8645 30.6645 54.9143 29.8994C54.9668 29.0918 54.9608 28.2842 54.8958 27.4764C54.8313 26.6737 54.7036 25.9015 54.5139 25.1592C54.3268 24.4274 54.0587 23.7062 53.708 22.9952C53.3324 22.2336 52.9571 21.4717 52.5821 20.7099C52.1666 19.8661 51.8957 18.9757 51.7713 18.0428C51.6373 17.0382 51.7899 16.0576 52.2166 15.1182C52.5065 14.48 52.5758 13.8396 52.4315 13.1708C52.2293 12.2336 52.1817 11.2923 52.2909 10.3506C52.3256 10.0505 52.2842 9.84244 52.2131 9.69178C52.1428 9.54303 52.0156 9.39039 51.7798 9.2456C51.0265 8.78305 50.3156 8.23854 49.647 7.61362C49.1009 7.10311 48.4749 6.71828 47.7632 6.45626C46.8727 6.12847 46.0522 5.68545 45.3048 5.12722C44.6325 4.62509 43.9519 4.13597 43.2624 3.66043C42.5749 3.18631 41.8763 2.72875 41.1675 2.28747C40.4583 1.84592 39.7406 1.42101 39.0144 1.01283C38.409 0.672595 37.762 0.509721 37.0577 0.523232C36.1762 0.540195 35.298 0.512442 34.4243 0.439387C33.5379 0.365258 32.658 0.225323 31.785 0.0196633C31.0405 -0.15574 30.2849 -0.209111 29.5156 -0.139542C28.5901 -0.0558581 27.6724 -0.0837946 26.7646 -0.223886C25.9227 -0.353813 25.0811 -0.487808 24.2399 -0.626143C23.4484 -0.756321 22.6504 -0.818911 21.8459 -0.813796ZM48.2768 53.0611H48.2778C48.2796 53.061 48.2811 53.0607 48.2822 53.0606C48.2808 53.0607 48.2788 53.0609 48.2768 53.0611ZM48.0753 52.2516L48.1506 52.2371L48.1501 52.2356L48.0753 52.2516ZM42.9592 30.0716C43.2594 29.7162 43.7908 29.6718 44.146 29.9723C44.5011 30.2728 44.5459 30.8046 44.2457 31.1601L44.2128 31.199L44.2123 31.1985C43.1496 32.4822 42.2892 33.4461 41.6388 34.0697C41.0651 34.6198 40.5509 35.2256 40.0959 35.8878C39.7015 36.4621 39.5047 37.0797 39.4946 37.7594C39.4854 38.3829 39.6828 38.684 39.9773 38.8693C40.5574 39.2343 41.2202 39.6215 41.9669 40.0312C42.5762 40.3656 43.2104 40.494 43.8917 40.423C44.7039 40.3382 45.5009 40.1952 46.2827 39.9943C47.0992 39.7843 47.726 39.6461 48.1162 39.605L48.5455 39.5591L48.5655 39.5571L48.6163 39.5531C49.0797 39.5145 49.4867 39.8589 49.5254 40.3226C49.564 40.7865 49.2194 41.1943 48.756 41.233L48.7096 41.2365L48.2957 41.2809L48.2937 41.2814C48.0435 41.3075 47.5281 41.4142 46.7015 41.6267C45.8388 41.8485 44.9604 42.0061 44.0667 42.0994C43.0418 42.2063 42.0642 42.0072 41.1571 41.5094C40.3873 41.0871 39.6947 40.6825 39.0807 40.2962C38.1813 39.7301 37.7947 38.807 37.8106 37.7339C37.8258 36.7168 38.1283 35.7767 38.7082 34.9326C39.2277 34.1765 39.8165 33.4828 40.4739 32.8525C41.0535 32.2968 41.8661 31.3913 42.9208 30.117L42.9238 30.114L42.9263 30.111L42.9592 30.0716ZM3.3117 28.3138C3.65192 27.9965 4.18487 28.0153 4.50197 28.3558L4.54984 28.4072L4.56181 28.4216C5.63116 29.6801 6.46146 30.5396 7.06253 31.0343C7.76844 31.6154 8.40503 32.2626 8.97135 32.9752C9.58971 33.7534 9.95743 34.6118 10.018 35.541C10.0719 36.3679 9.98724 37.2339 9.77617 38.1342C9.54775 39.1084 9.09528 39.9484 8.41037 40.6266C7.681 41.3488 6.76289 41.711 5.71468 41.7275C4.8097 41.7418 3.92375 41.6641 3.05838 41.493C2.22413 41.328 1.48934 41.1334 0.861343 40.9061C0.699718 40.8476 0.564857 40.8005 0.455443 40.7633L0.134315 40.7224C-0.219992 40.6767 -0.493979 40.4168 -0.575262 40.0896L-0.693441 39.8964L-0.499966 39.4847C-0.347095 39.1595 -0.0619717 39.0569 0.0375767 39.0285C0.153096 38.9957 0.249782 38.9951 0.290391 38.9956C0.37948 38.9967 0.455114 39.0107 0.489352 39.0176C0.570347 39.0337 0.658894 39.0589 0.739174 39.0834C0.908112 39.135 1.14271 39.2154 1.43429 39.321C1.9603 39.5114 2.60805 39.6855 3.3845 39.839C4.12986 39.9864 4.89739 40.0546 5.68775 40.0422C6.33488 40.0319 6.82821 39.8223 7.22608 39.4283C7.66846 38.9903 7.9747 38.4395 8.13661 37.7489C8.31584 36.9845 8.37901 36.2866 8.33757 35.6508C8.30278 35.1172 8.09359 34.5782 7.65342 34.0243C7.16117 33.4048 6.6075 32.8422 5.99243 32.3359C5.2753 31.7456 4.37164 30.7985 3.29175 29.5286L3.26981 29.5046C2.95279 29.1641 2.97153 28.6312 3.3117 28.3138ZM23.4222 25.3713C23.98 25.1842 24.7545 25.1899 25.6222 25.2815C26.6386 25.3887 27.515 25.7646 28.1653 26.4683C28.6688 27.0131 29.186 27.6304 29.7171 28.3178C30.3288 29.1098 30.6735 29.9846 30.6905 30.9285C30.7066 31.831 30.4639 32.7191 30.0008 33.5816C29.5551 34.4117 29.0212 35.1073 28.3877 35.6438C27.7173 36.2115 26.8878 36.5669 25.9388 36.7408C25.0343 36.9065 24.1345 36.9532 23.2422 36.878C22.2836 36.7973 21.3856 36.4842 20.5579 35.9507C19.7066 35.402 19.1042 34.6637 18.9712 33.7109C18.8738 33.0126 18.8468 32.2326 18.883 31.3762C18.9259 30.3598 19.2975 29.4494 19.973 28.6697C20.5309 28.0258 21.0929 27.3855 21.6584 26.7487C22.2302 26.105 22.8237 25.572 23.4222 25.3713ZM25.4457 26.9579C24.597 26.8683 24.142 26.9079 23.9572 26.9698C23.813 27.0182 23.4717 27.2441 22.917 27.8687C22.3561 28.5003 21.7989 29.1355 21.2456 29.7741C20.81 30.277 20.5917 30.8266 20.5654 31.4476C20.5324 32.2285 20.5591 32.9035 20.6392 33.4778C20.6838 33.7976 20.8874 34.1579 21.47 34.5333C22.0761 34.924 22.7108 35.1415 23.3833 35.1981C24.1219 35.2603 24.8719 35.2227 25.6352 35.0828C26.354 34.9511 26.8957 34.6987 27.2996 34.3567C27.7405 33.9833 28.1504 33.4671 28.5173 32.7836C28.8669 32.1324 29.0167 31.5276 29.0065 30.959C28.997 30.4317 28.8101 29.8997 28.3847 29.3489C27.8785 28.6937 27.3934 28.1155 26.9292 27.6131C26.6117 27.2696 26.1457 27.0317 25.4457 26.9579ZM23.9183 28.8249C24.0812 28.736 24.403 28.6179 24.7605 28.76L24.8328 28.792L25.0268 28.8943C25.2755 29.0305 25.6859 29.2664 26.239 29.589C26.6455 29.8261 27.1431 30.2024 27.2722 30.7913C27.426 31.4924 26.9854 32.0042 26.6145 32.29C25.8044 32.9141 24.8464 33.0226 23.8595 32.7122C23.3771 32.5605 22.8353 32.2622 22.6173 31.6612C22.4025 31.0684 22.616 30.4899 22.8766 30.0566C23.0959 29.6923 23.3082 29.3795 23.5099 29.1588C23.607 29.0527 23.7442 28.92 23.9183 28.8249ZM24.5521 30.5612C24.486 30.6581 24.4086 30.7788 24.3197 30.9265C24.2871 30.9808 24.2638 31.0253 24.2479 31.0608C24.2779 31.0738 24.316 31.089 24.3641 31.1042C24.8144 31.2458 25.1436 31.2132 25.4197 31.0628C25.4104 31.0572 25.4008 31.0511 25.3908 31.0453C25.0401 30.8407 24.7617 30.6807 24.5521 30.5612ZM19.4694 20.1305C19.5356 20.1149 19.6728 20.0886 19.8384 20.114C20.0153 20.1411 20.2722 20.2401 20.4408 20.4998L20.4732 20.5537L20.5579 20.7069L20.5584 20.7154C20.7402 21.1119 20.5898 21.5872 20.2024 21.8024L20.0237 21.8602C19.7274 21.956 19.4406 22.0793 19.1672 22.2285L19.0206 22.3085C18.5245 22.6211 17.958 22.9379 17.3232 23.2582C16.608 23.6191 15.5621 24.2438 14.1717 25.1477L14.1468 25.1642L14.1214 25.1781L14.0765 25.2031C13.6698 25.4287 13.1572 25.2817 12.9316 24.8747C12.7061 24.4677 12.8531 23.9546 13.2597 23.7288L13.2812 23.7163C14.6712 22.8134 15.7706 22.1539 16.5653 21.753C17.301 21.3818 17.9145 21.0291 18.4113 20.6959C18.684 20.513 18.9238 20.3641 19.1143 20.2677C19.2012 20.2238 19.329 20.1634 19.4694 20.1305ZM28.8031 19.831C29.0509 19.4372 29.5709 19.3191 29.9644 19.567L30.0078 19.5945L30.0432 19.6164L30.0756 19.6424C31.3788 20.6565 32.363 21.276 33.0501 21.5598C33.8586 21.8939 34.5274 22.2006 35.0466 22.4801C35.2988 22.6159 35.5296 22.7542 35.6999 22.8914C35.7777 22.9541 35.9027 23.0633 35.9981 23.2168C36.0924 23.3687 36.2699 23.7712 36.0055 24.1915L35.9322 24.3083L35.9297 24.3098C35.9277 24.3131 35.9264 24.3169 35.9243 24.3202C35.6764 24.7141 35.1878 24.6839 34.7943 24.4358L34.7509 24.4088L34.3204 24.0912L33.9052 23.7882C33.5031 23.5887 33.0053 23.3651 32.4073 23.118C31.512 22.748 30.3949 22.0228 29.0773 20.9999L29.0669 20.9934C28.6734 20.7453 28.5552 20.2249 28.8031 19.831ZM20.0872 12.0509C20.4541 11.85 20.9039 11.9517 21.1533 12.271L21.1573 12.2735L21.2381 12.3723C21.4702 12.6544 21.4652 12.9841 21.3947 13.2033C21.337 13.3823 21.2361 13.504 21.1877 13.5581C21.082 13.6765 20.9516 13.7725 20.8526 13.8401C20.6367 13.9877 20.3243 14.1641 19.9406 14.3641C19.2723 14.7126 18.6574 15.1785 18.0961 15.769C17.3014 16.6051 16.3047 16.9871 15.174 16.8411C14.3944 16.7404 13.2043 16.6934 11.5798 16.7093C11.1224 16.7712 10.6999 16.4528 10.6338 15.9946C10.5675 15.534 10.8867 15.1069 11.3469 15.0404L11.3973 15.0329L11.4526 15.0249L11.509 15.0244C13.1805 15.0068 14.4827 15.052 15.3899 15.1692C15.9546 15.242 16.4274 15.079 16.8759 14.6072C17.5328 13.9162 18.2649 13.3521 19.071 12.9188L19.1008 12.8997C19.454 12.6734 19.7713 12.3956 20.0423 12.0754L20.0872 12.0509ZM28.7672 11.3028C28.9802 10.8891 29.4882 10.7263 29.9016 10.9395L30.105 11.0448L30.2167 11.1835C31.2495 12.4662 32.0644 13.2006 32.6636 13.5117C33.3007 13.8424 33.9665 13.9982 34.6722 13.9843C35.5076 13.9679 36.0201 13.9182 36.2728 13.8596L36.931 13.6684L37.1494 13.7218L37.1993 13.7338C37.6511 13.8443 37.9276 14.3008 37.8171 14.7529C37.7257 15.1272 37.3978 15.3805 37.0313 15.3942L36.7146 15.4866L36.6957 15.4921L36.6762 15.497C36.2323 15.6035 35.5533 15.6531 34.7051 15.6697C33.7153 15.6891 32.7721 15.4668 31.8882 15.0079C30.9919 14.5426 30.0268 13.618 28.9941 12.3499C28.6837 12.1051 28.5794 11.6675 28.7672 11.3028Z" fill="white"/>
</g>
<defs>
<clipPath id="clip0_4094_11636">
<rect width="50" height="50" fill="white"/>
</clipPath>
</defs>
</svg>
