<svg width="50" height="50" viewBox="0 0 50 50" fill="none" xmlns="http://www.w3.org/2000/svg">
<g clip-path="url(#clip0_4094_11639)">
<rect width="50" height="50" fill="#36B8BD"/>
<path d="M42.3577 3.50508C43.4693 3.54232 44.4925 3.83759 45.4044 4.40382C46.2835 4.94984 47.027 5.67234 47.6337 6.55831C48.1857 7.36451 48.7049 8.20008 49.1913 9.06467C49.6598 9.89735 50.1397 10.7241 50.6314 11.5443C51.0473 12.2381 51.5333 13.2082 52.09 14.4395C53.1091 13.63 53.8697 12.9799 54.3807 12.4834C55.0864 11.7978 55.8169 11.1302 56.5717 10.4807C57.4553 9.72038 58.496 9.25826 59.6685 9.09309C60.8599 8.9253 61.996 9.11788 63.0453 9.67634C63.9814 10.1745 64.8369 10.7754 65.6088 11.4795C66.4542 12.2506 67.0293 13.1936 67.3138 14.2923C67.598 15.3896 67.5555 16.4944 67.1957 17.5831C66.8936 18.4974 66.5951 19.4131 66.2996 20.3299C65.9976 21.267 65.6675 22.1967 65.3101 23.1183C64.9446 24.0605 64.521 24.9752 64.0393 25.8617C63.5352 26.7895 62.9121 27.6363 62.1729 28.4004C61.5476 29.0467 61.1536 29.6284 60.9415 30.1411C60.8326 30.4043 60.7306 30.634 60.6388 30.8181C61.3759 32.1945 61.9421 33.2623 62.3343 34.0203C62.8425 35.0025 63.1218 36.0541 63.1702 37.165C63.2229 38.3749 62.858 39.4712 62.0958 40.4115C61.4623 41.1931 60.7999 41.9393 60.1089 42.6496C59.4407 43.3365 58.776 44.0271 58.1153 44.7211C57.8494 45.0003 57.6135 45.2496 57.4065 45.4675C57.4577 45.4781 57.5102 45.4898 57.564 45.501C58.4561 45.6862 59.3643 45.8057 60.2884 45.8591C61.5038 45.9294 62.5398 46.4272 63.3322 47.3451C64.0474 48.1734 64.5469 49.1266 64.8258 50.1937C65.0765 51.1529 65.2731 52.1178 65.4153 53.0883C65.6003 54.3506 65.1901 55.4621 64.2548 56.3286C63.5275 57.0023 62.7825 57.6487 62.0199 58.2665C61.2673 58.876 60.5064 59.4758 59.7382 60.0657C58.9118 60.7002 58.0301 61.2097 57.0943 61.5903C56.2844 61.9197 55.4742 62.3209 54.6642 62.7949C53.7594 63.3242 52.817 63.7467 51.8386 64.0608C50.8202 64.3877 49.7648 64.5299 48.6788 64.4889C47.4929 64.444 46.4285 64.0365 45.5197 63.2741C44.9187 62.7699 43.9773 62.121 42.6721 61.3237C41.586 62.403 40.8305 63.2531 40.3792 63.8823C39.7692 64.7329 39.0676 65.4989 38.2759 66.1784C37.5589 66.7937 36.869 67.4285 36.2069 68.0827C35.3785 68.9014 34.3669 69.3919 33.2053 69.5499C32.0763 69.7035 30.9794 69.5613 29.9325 69.123C29.0417 68.75 28.154 68.3777 27.2706 68.0065C26.3829 67.6336 25.498 67.2536 24.6165 66.8662C23.673 66.4515 22.7771 65.9287 21.9304 65.3001C21.8495 65.24 21.7712 65.184 21.6964 65.1312C21.834 65.5844 22.0282 66.0673 22.2837 66.5808C22.7967 67.6119 23.0131 68.7212 22.9368 69.8887C22.8593 71.0746 22.4666 72.1408 21.7538 73.0568C21.1102 73.8839 20.3749 74.595 19.5487 75.1857C18.5899 75.871 17.4886 76.1185 16.304 75.948C15.3579 75.8118 14.4331 75.6995 13.5302 75.6109C12.4205 75.502 11.413 75.0764 10.5245 74.3569C9.83228 73.7962 9.08435 73.3256 8.28004 72.9448C7.33883 72.4992 6.46233 71.947 5.65302 71.2889C4.97063 70.734 4.22536 70.2808 3.4147 69.9297C2.38902 69.4854 1.52033 68.8328 0.824242 67.9747C0.140703 67.132 -0.342123 66.1748 -0.622591 65.1131C-0.887535 64.11 -1.03933 63.0742 -1.07937 62.0075C-1.1255 60.7778 -0.75889 59.658 0.000132561 58.686C0.471219 58.0828 1.15576 57.4719 2.02469 56.8504C1.0499 56.4707 0.254539 56.0792 -0.339075 55.668C-1.08941 55.1483 -1.8699 54.7212 -2.68033 54.3856C-3.76322 53.937 -4.57763 53.178 -5.06997 52.1248C-5.53341 51.1332 -5.70196 50.0727 -5.58187 48.9652C-5.48824 48.1019 -5.38321 47.4031 -5.26067 46.9006C-6.63919 46.2729 -7.70967 45.643 -8.40128 44.9934C-9.16933 44.2719 -9.78683 43.4203 -10.2531 42.4466C-10.6648 41.5871 -11.0913 40.735 -11.5335 39.8908C-12.0374 38.9287 -12.3498 37.8993 -12.4701 36.8092C-12.6052 35.5836 -12.2825 34.4685 -11.5036 33.5308C-10.8402 32.7321 -10.0757 32.0336 -9.21414 31.4355C-8.33978 30.8285 -7.39146 30.3717 -6.37279 30.0666C-5.40453 29.7767 -4.44059 29.5664 -3.48194 29.4373C-2.46959 29.3011 -1.47981 29.3389 -0.519648 29.5578C-0.329192 29.6013 -0.163984 29.637 -0.0234938 29.6664C-0.00527763 29.6107 0.0182123 29.5392 0.0440092 29.4487C0.119324 29.1844 0.20857 28.8227 0.311775 28.3572C0.531564 27.366 0.815553 26.3965 1.16401 25.4495C1.50286 24.5287 1.86482 23.616 2.24914 22.7112C2.60872 21.8647 2.90452 20.9957 3.13625 20.1043C3.39711 19.1007 3.76071 18.133 4.227 17.2028C4.61939 16.4201 4.88734 15.5946 5.03142 14.7232C5.2086 13.6514 5.5535 12.6408 6.06592 11.6967C6.57774 10.7537 7.22337 9.93548 8.00271 9.24999C8.81076 8.53933 9.75706 8.04636 10.8244 7.768C11.8352 7.50444 12.865 7.37461 13.9115 7.3786C14.8261 7.38212 15.73 7.31122 16.623 7.16656C17.5335 7.01903 18.4381 6.82164 19.336 6.57422C20.3298 6.3004 21.3393 6.13312 22.363 6.07284C23.295 6.01797 24.2221 5.92511 25.1436 5.79486C26.1122 5.65795 27.0857 5.55477 28.0632 5.48504C28.9794 5.41969 29.888 5.29663 30.7886 5.11611C31.7725 4.91888 32.7665 4.79305 33.7695 4.73865C34.7139 4.68744 35.6558 4.61562 36.5945 4.5232C37.4762 4.43639 38.3459 4.25092 39.2041 3.96554C40.2322 3.62362 41.2852 3.46919 42.3577 3.50508ZM4.28494 57.6508C2.86872 58.5218 1.96651 59.2669 1.49141 59.8752C1.00763 60.4947 0.790451 61.1689 0.819179 61.9348C0.854053 62.8638 0.985738 63.7577 1.21295 64.6179C1.42463 65.4193 1.78458 66.1294 2.29414 66.7576C2.79118 67.3703 3.40927 67.8387 4.16287 68.1651C5.13166 68.5848 6.02658 69.1276 6.84446 69.7927C7.5353 70.3544 8.28191 70.8254 9.08559 71.2059C10.0263 71.6512 10.9026 72.2024 11.7126 72.8584C12.3263 73.3555 12.988 73.6285 13.7135 73.6997C14.646 73.7912 15.5991 73.907 16.5718 74.0471C17.3058 74.1528 17.9128 74.0032 18.4512 73.6184C19.1221 73.1388 19.7253 72.5572 20.2603 71.8698C20.7261 71.2713 20.9877 70.5785 21.0411 69.762C21.0956 68.927 20.9427 68.1607 20.586 67.4438C20.1881 66.644 19.897 65.8625 19.7231 65.1023L19.6646 64.8737C19.5985 64.6157 19.4597 64.3823 19.2652 64.2024C19.2586 64.1993 19.2516 64.1965 19.2449 64.1933C19.014 64.0829 18.6813 63.9204 18.2504 63.7072C17.4364 63.3046 16.5935 62.9691 15.7212 62.7016C14.716 62.3933 13.7675 61.9496 12.8787 61.3726C12.1234 60.8822 11.3293 60.4875 10.4959 60.1873C9.5627 59.8512 8.64938 59.4675 7.75632 59.0367C7.00197 58.6729 5.85073 58.2115 4.28494 57.6508ZM42.2947 5.42422C41.4479 5.39588 40.6172 5.5168 39.7981 5.78917C38.8092 6.11805 37.8022 6.33362 36.779 6.43438C35.8128 6.52951 34.8432 6.60338 33.8713 6.65608C32.9583 6.70561 32.054 6.81998 31.1588 6.99943C30.1802 7.1956 29.1926 7.32919 28.1971 7.4002C27.2627 7.46685 26.3324 7.56555 25.4069 7.69637C24.4346 7.83381 23.4567 7.93183 22.4739 7.9897C21.5825 8.04219 20.7033 8.18788 19.8361 8.42685C18.8732 8.6922 17.9022 8.9039 16.9239 9.06239C15.9281 9.22371 14.9214 9.30277 13.9048 9.29888C13.0203 9.29549 12.152 9.4045 11.2992 9.62688C10.5026 9.83462 9.82471 10.1934 9.25041 10.6984C8.64763 11.2286 8.14109 11.8665 7.73214 12.6198C7.32371 13.3724 7.04827 14.1779 6.90578 15.0398C6.73014 16.102 6.40173 17.1137 5.92191 18.0709C5.51606 18.8805 5.19995 19.7207 4.97348 20.592C4.71784 21.5754 4.39197 22.5345 3.99524 23.4684C3.62325 24.3441 3.27289 25.2276 2.94499 26.1186C2.62668 26.9836 2.367 27.8698 2.16588 28.7768C2.05867 29.2602 1.95961 29.6638 1.86943 29.9802C1.84955 30.0499 1.82884 30.1206 1.80699 30.1905C2.52674 30.5558 3.07681 30.7903 3.46871 30.9108C3.67189 30.9732 3.85851 31.0287 4.0273 31.0802L4.43167 31.0802L5.34813 31.1797L5.40269 31.1979C5.88525 31.3552 6.1564 31.8651 6.02879 32.3547L6.02935 32.3621L5.97197 32.5417C5.74781 33.2435 5.05889 33.2746 4.92004 33.2745C4.69808 33.2742 4.47468 33.2199 4.29844 33.1676C3.98797 33.0755 3.52619 32.9351 2.91574 32.7475C2.2882 32.5546 1.4829 32.1898 0.520474 31.6811C0.479156 31.6821 0.445444 31.682 0.424281 31.6811C0.311399 31.6762 0.185344 31.658 0.0704489 31.639C-0.171745 31.599 -0.512128 31.5281 -0.938171 31.4309C-1.66641 31.2649 -2.4288 31.2326 -3.23105 31.3405C-4.08694 31.4558 -4.95424 31.6443 -5.83276 31.9073C-6.66092 32.1553 -7.42874 32.5253 -8.13858 33.0181C-8.86113 33.5197 -9.49721 34.102 -10.0484 34.7655C-10.484 35.2901 -10.6608 35.8787 -10.5817 36.5966C-10.4875 37.4497 -10.2452 38.2462 -9.8543 38.9926C-9.40149 39.8572 -8.96465 40.7301 -8.54304 41.6104C-8.17612 42.3766 -7.69735 43.0329 -7.10746 43.587C-6.55662 44.1043 -5.49422 44.7319 -3.81046 45.4453L-3.71033 45.4879C-3.10865 45.4467 -2.45379 45.6776 -1.8281 45.987C-1.78717 46.0073 -1.74298 46.0263 -1.69703 46.0467L-1.64527 46.0609L-1.65427 46.0661C-1.23154 46.248 -0.607254 46.4359 0.246521 46.618L0.684733 46.7073L0.720736 46.7141L0.756175 46.7238L0.811866 46.7391C1.31786 46.8789 1.61608 47.4067 1.4779 47.9181C1.33964 48.4295 0.817281 48.7308 0.311213 48.5912L0.290399 48.5855C-0.955452 48.3425 -1.96069 48.0588 -2.66346 47.7112C-3.03472 47.5276 -3.28247 47.45 -3.43075 47.4201C-3.5158 47.789 -3.60563 48.3646 -3.69345 49.1744C-3.77662 49.9414 -3.6607 50.6446 -3.352 51.305C-3.07217 51.9037 -2.62559 52.3333 -1.95973 52.6091C-1.02111 52.9978 -0.122341 53.4902 0.735361 54.0843C1.41849 54.5574 2.60907 55.0847 4.38563 55.643L4.43345 55.6578L4.47901 55.6777L4.53189 55.701L4.54933 55.7084C6.31783 56.3334 7.66736 56.8664 8.57481 57.3041C9.4089 57.7064 10.262 58.0644 11.1338 58.3784C12.1054 58.7285 13.03 59.1888 13.9059 59.7575C14.6483 60.2396 15.4369 60.6079 16.2731 60.8643C17.2423 61.1616 18.1804 61.5343 19.0863 61.9825C19.363 62.1194 19.5965 62.2322 19.7855 62.3242L20.1495 62.4828C20.3688 62.4625 20.5707 62.5204 20.7283 62.6101L20.7778 62.6147L20.7919 62.6158L20.8054 62.6175C21.1752 62.6623 21.5459 62.8141 21.8911 62.9972C22.2474 63.1863 22.6371 63.442 23.0555 63.7527C23.791 64.2988 24.564 64.749 25.3743 65.1051C26.2465 65.4884 27.1218 65.865 28.0002 66.2341C28.8829 66.6049 29.7698 66.9767 30.6598 67.3494C31.3935 67.6566 32.1517 67.756 32.9516 67.6473C33.7191 67.5428 34.3509 67.2315 34.8788 66.7099C35.5731 66.0238 36.2958 65.3585 37.0462 64.7146C37.7219 64.1347 38.3198 63.482 38.8407 62.7556C39.4547 61.8996 40.4581 60.8067 41.8126 59.4915L41.8345 59.4676L41.8424 59.4585C42.9746 57.9437 43.9683 56.8144 44.8154 56.1353C45.5493 55.5469 46.2503 54.9277 46.9181 54.2781C47.5858 53.6286 48.2206 52.9479 48.8223 52.2362C49.4415 51.5038 50.0569 50.7672 50.6674 50.0266C51.307 49.2506 51.9944 48.5194 52.7296 47.834C52.9697 47.6102 53.1876 47.3976 53.3867 47.1996L54.2389 46.2736L54.8453 45.397L54.8847 45.3549L54.8875 45.3509L54.8909 45.3475L55.3004 44.9138C55.6013 44.5943 56.084 44.0857 56.7467 43.3897C57.412 42.6909 58.0814 41.9952 58.7544 41.3035C59.4045 40.6352 60.0288 39.9324 60.6265 39.195C61.0955 38.6163 61.3041 37.9817 61.2722 37.2492C61.236 36.4177 61.0291 35.6409 60.6507 34.9094C60.2108 34.0592 59.5451 32.8035 58.652 31.1399L58.6289 31.0972L58.6109 31.0529L58.6064 31.0427L58.5991 31.0285L58.5828 30.9978L58.5687 30.9654C57.8084 29.2306 57.2284 27.931 56.8271 27.0634C56.4369 26.2196 56.0004 25.4008 55.5181 24.6065C55.029 23.8009 54.5099 23.0111 53.961 22.2371C53.3397 21.3611 52.8683 20.4035 52.5474 19.3687C52.2784 18.5013 51.9589 17.8547 51.6108 17.3944C51.3934 17.1069 51.2295 16.8903 51.1202 16.7446C51.0659 16.6722 51.0233 16.6152 50.9942 16.5758C50.9803 16.5569 50.9666 16.538 50.9554 16.5224C50.9534 16.5196 50.9505 16.5154 50.947 16.5104L50.9464 16.5116L50.9155 16.4621C50.9099 16.4532 50.9026 16.4422 50.8958 16.4303C50.8908 16.4216 50.8645 16.3763 50.8395 16.3154L50.8384 16.3126L50.8238 16.2791C50.0742 14.5482 49.469 13.311 49.0062 12.5391C48.5055 11.7039 48.0168 10.862 47.5397 10.014C47.0805 9.19776 46.5906 8.4099 46.0709 7.6509C45.6059 6.97176 45.0524 6.43895 44.4098 6.03986C43.7999 5.66113 43.1023 5.45126 42.2947 5.42422ZM55.7521 47.4582C55.3206 47.977 54.7378 48.5743 54.0178 49.2455C53.3436 49.8741 52.7135 50.5442 52.1272 51.2556C51.5116 52.0024 50.8912 52.7449 50.2669 53.4834C49.625 54.2425 48.9483 54.9691 48.2361 55.6618C47.5242 56.3543 46.7771 57.0133 45.9961 57.6394C45.4616 58.068 44.7788 58.7965 43.9418 59.8576C45.1424 60.6012 46.0797 61.248 46.7336 61.7966C47.3164 62.2855 47.9779 62.5405 48.7503 62.5697C49.6228 62.6027 50.4588 62.4892 51.2631 62.2309C52.1073 61.9599 52.9234 61.5944 53.7118 61.1332C54.595 60.6165 55.4865 60.1747 56.385 59.8093C57.1575 59.4951 57.8921 59.0715 58.589 58.5365C59.344 57.9567 60.0916 57.3671 60.8312 56.768C61.5608 56.177 62.2744 55.559 62.9711 54.9137C63.4598 54.4609 63.6249 53.9773 63.5359 53.3697C63.4041 52.4704 63.2215 51.5751 62.9885 50.6837C62.7837 49.9 62.4224 49.2115 61.9006 48.6071C61.4562 48.0924 60.904 47.8179 60.1804 47.776C59.1655 47.7173 58.1652 47.5857 57.1815 47.3815C56.6828 47.278 56.2934 47.1944 56.0154 47.1359C55.9381 47.2325 55.85 47.3405 55.7521 47.4582ZM42.6699 25.7349C43.8373 25.3236 44.976 25.4409 45.9478 26.188C46.3157 26.4709 46.6376 26.7739 46.8771 27.1004L47.1572 27.716L47.4407 28.3186C47.4676 28.4683 47.4812 28.6201 47.4812 28.7722V28.8467C47.51 28.875 47.5395 28.9055 47.5712 28.9365C48.3455 29.6932 48.3534 30.7749 48.0938 31.772C47.7798 32.9784 46.9693 33.8085 45.7947 34.2312C44.9231 34.5448 44.0713 34.9071 43.2403 35.3181C42.318 35.7741 41.3581 36.1297 40.3618 36.384C39.3532 36.6413 38.3669 36.759 37.4074 36.7285C36.6543 36.7044 36.0285 36.3267 35.5387 35.7785C35.1429 35.3356 34.8119 34.757 34.5272 34.0811L34.3624 33.7025L34.1627 33.1579C33.9187 32.4974 33.7749 31.8679 33.7841 31.2899C33.7962 30.5332 34.0754 29.8354 34.7117 29.3663C35.4491 28.8227 36.2606 28.3085 37.1436 27.8234C38.0497 27.3257 38.9924 26.9264 39.9703 26.6257C40.8739 26.3478 41.774 26.0506 42.6699 25.7349ZM46.0597 30.1286C44.5831 30.6841 43.4583 31.1202 42.6817 31.4389C41.7736 31.8116 40.8521 32.15 39.918 32.4536C39.0713 32.7288 38.2575 33.0938 37.4766 33.5496C37.1566 33.7364 36.8669 33.8939 36.6131 34.0169C36.7285 34.2143 36.8405 34.3714 36.9484 34.4921C37.1887 34.761 37.3593 34.8058 37.4676 34.8093C38.2311 34.8336 39.04 34.7408 39.8966 34.5222C40.7654 34.3005 41.6016 33.9909 42.4055 33.5934C43.3008 33.1506 44.2184 32.7602 45.1574 32.4223C45.7934 32.1935 46.1154 31.8238 46.256 31.2837C46.4511 30.5342 46.2828 30.3484 46.2504 30.3167C46.1816 30.2494 46.1181 30.1864 46.0597 30.1286ZM44.7968 27.716C44.3982 27.4097 43.9436 27.3199 43.2954 27.5483C42.3756 27.8724 41.4513 28.177 40.5233 28.4624C39.6695 28.7249 38.8456 29.0742 38.0509 29.5107C37.2331 29.9599 36.4935 30.4293 35.8312 30.9176C35.7678 30.9644 35.6882 31.0426 35.6838 31.3206C35.6803 31.5413 35.73 31.8469 35.861 32.2507C36.0383 32.1619 36.2596 32.0426 36.5265 31.8868C37.4228 31.3636 38.3598 30.9428 39.3363 30.6254C40.2255 30.3364 41.1025 30.0148 41.9667 29.6602C42.7697 29.3306 43.9172 28.8854 45.4044 28.326C45.3948 28.3088 45.382 28.2862 45.3627 28.2589C45.2718 28.13 45.0973 27.9471 44.7968 27.716ZM62.1599 11.3749C61.4739 11.0098 60.7408 10.8811 59.9306 10.9952C59.1015 11.112 58.4004 11.4283 57.8031 11.9422C57.077 12.567 56.3753 13.2092 55.6976 13.8676C55.0846 14.4631 54.1943 15.2168 53.0418 16.125C53.0671 16.1584 53.0931 16.1934 53.12 16.229C53.6413 16.9184 54.0475 17.7852 54.3604 18.7945C54.6215 19.6364 55.0031 20.4097 55.5057 21.1184C56.0808 21.9292 56.6247 22.7572 57.1376 23.602C57.6574 24.4581 58.1279 25.341 58.5485 26.2505C58.8216 26.8412 59.1717 27.6231 59.6015 28.5931C59.919 28.0718 60.3285 27.5605 60.8144 27.0583C61.4345 26.4173 61.9537 25.7109 62.3737 24.9379C62.8161 24.1236 63.2051 23.2831 63.5409 22.4173C63.8849 21.5306 64.2023 20.6365 64.4927 19.7353C64.7897 18.8139 65.0903 17.8937 65.3939 16.9749C65.6399 16.2304 65.6639 15.5059 65.4755 14.7783C65.2874 14.0521 64.9142 13.4329 64.3358 12.9052C63.6839 12.3106 62.9592 11.8003 62.1599 11.3749ZM30.1822 23.232C30.7365 23.1719 31.2993 23.2239 31.7995 23.4855C32.3181 23.7567 32.6691 24.2006 32.8728 24.7293C33.0692 25.2389 33.1223 25.787 32.9533 26.3301C32.7875 26.8623 32.4403 27.2883 32.0172 27.6245C31.6584 27.9095 31.2901 28.1464 30.9197 28.2913C30.5498 28.4359 30.1015 28.5171 29.645 28.372C29.0915 28.1959 28.7809 27.7393 28.6077 27.3573C28.4279 26.9608 28.3148 26.4726 28.2409 25.939C28.1564 25.3284 28.1991 24.6668 28.5723 24.1182C28.9629 23.544 29.5426 23.3366 30.1822 23.232ZM30.9259 25.1909C30.8579 25.1554 30.7007 25.1066 30.3847 25.1409C30.1358 25.1679 30.1161 25.2336 30.135 25.2102C30.1232 25.2357 30.079 25.358 30.1226 25.6729C30.1748 26.0494 30.2406 26.3059 30.3009 26.4699C30.4289 26.4095 30.6089 26.3009 30.8426 26.1152C31.0562 25.9455 31.1204 25.8194 31.1408 25.7542C31.1577 25.6999 31.1715 25.6045 31.1025 25.4257C31.041 25.2661 30.9754 25.2168 30.9259 25.1909ZM39.7143 20.0946C40.211 19.7612 40.7841 19.5567 41.4019 19.6245C42.0199 19.6924 42.5356 20.0167 42.9495 20.4505C43.3594 20.8801 43.6635 21.4073 43.7128 22.0279C43.7624 22.6523 43.5422 23.2195 43.1953 23.7026C42.8568 24.174 42.4199 24.5532 41.8683 24.7452C41.3134 24.9382 40.7398 24.9079 40.1908 24.7333C39.791 24.6061 39.4783 24.5012 39.2654 24.4206C39.1665 24.3832 39.0537 24.3382 38.9589 24.2887C38.9294 24.2734 38.8118 24.2128 38.7001 24.1063C38.6589 24.0669 38.4826 23.8983 38.4183 23.6077C38.3919 23.4884 38.3863 23.3529 38.4132 23.2126C38.4033 23.0996 38.3793 22.9145 38.3356 22.6447C38.153 21.5182 38.8586 20.669 39.7143 20.0946ZM28.4699 19.2987C29.575 19.209 30.5948 19.3932 31.4749 19.915C31.6847 20.0393 31.9103 20.1987 32.0864 20.4055C32.2643 20.6146 32.476 20.9784 32.4014 21.4464C32.33 21.8941 32.0365 22.1708 31.8327 22.3156C31.62 22.4665 31.3712 22.5722 31.134 22.6516C30.2923 22.9331 29.3697 23.1507 28.3703 23.3081C27.16 23.4988 25.9803 23.8526 25.2668 22.834C25.0404 22.5107 24.8699 22.261 24.7622 22.0939C24.7145 22.0198 24.6561 21.9274 24.6143 21.8443C24.6027 21.8212 24.5838 21.7812 24.5653 21.7323C24.5584 21.7104 24.5704 20.9099 24.5693 20.7222C24.5688 20.6283 24.5806 20.3789 24.7622 20.1355C24.9833 19.8395 25.3008 19.7512 25.5301 19.7529C25.5754 19.7533 25.6181 19.7564 25.6572 19.762C25.7515 19.7449 25.9029 19.711 26.1219 19.6506C26.7039 19.4902 27.4988 19.3776 28.4699 19.2987ZM41.1966 21.5334C41.1392 21.5271 41.0056 21.5332 40.7657 21.6943C40.4663 21.8952 40.3201 22.0589 40.2555 22.1655C40.203 22.2522 40.2044 22.2965 40.2105 22.3343C40.2345 22.4822 40.2547 22.6188 40.2712 22.7419C40.4067 22.7876 40.5696 22.8413 40.7612 22.9022C41.0059 22.9801 41.1549 22.9631 41.25 22.9301C41.3484 22.8958 41.4897 22.8087 41.6573 22.5754C41.8166 22.3536 41.8227 22.2311 41.8188 22.1814C41.8145 22.1279 41.7853 21.9961 41.5819 21.7829C41.3825 21.5739 41.2537 21.5397 41.1966 21.5334ZM28.9998 20.8984C28.7248 20.9207 28.3352 20.9604 27.9698 21.0013C27.7249 21.0287 27.5418 21.6371 27.7853 21.5988C28.17 21.5381 29.3336 21.3397 29.685 21.2611C29.5095 21.2531 29.1974 20.8824 28.9998 20.8984ZM40.7365 14.7271C41.2551 14.7008 41.8716 14.7584 42.3464 15.1399C42.9027 15.5868 42.9969 16.2413 42.914 16.7884C42.739 17.9423 41.8864 18.6717 40.8152 19.0901C39.789 19.4909 38.7313 19.5988 37.8237 19.0776C37.5461 18.9182 37.3378 18.7983 37.1998 18.7189C37.131 18.6793 37.0791 18.6491 37.0446 18.6291C37.0275 18.6193 37.0132 18.6115 37.0035 18.6058C36.9992 18.6033 36.9935 18.5998 36.9883 18.5967C36.9867 18.5957 36.9787 18.5909 36.9697 18.5853C36.967 18.5836 36.9619 18.5802 36.9557 18.5762C36.952 18.5738 36.9356 18.5633 36.9157 18.5489C36.9087 18.5439 36.8791 18.5232 36.8449 18.4932C36.8243 18.4746 36.7703 18.42 36.738 18.3829C36.6734 18.2949 36.5261 17.9017 36.5332 17.5888C36.5388 17.5769 36.5457 17.5653 36.5518 17.5536C36.6263 17.3511 36.8303 16.9602 37.1683 16.7122C37.3229 16.5545 37.5268 16.3471 37.7787 16.0886C38.5932 15.2527 39.5914 14.7854 40.7365 14.7271ZM37.4198 18.7263C37.4222 18.7262 37.4251 18.7254 37.4276 18.7252C37.4177 18.7247 37.4075 18.7236 37.3973 18.7229C37.405 18.7238 37.4126 18.7256 37.4198 18.7263ZM37.197 18.6876C37.1988 18.6881 37.2011 18.6883 37.2032 18.6888C37.1973 18.687 37.1912 18.685 37.1852 18.6831C37.1891 18.6843 37.193 18.6864 37.197 18.6876ZM40.8315 16.6452C40.1815 16.6783 39.6271 16.9285 39.1327 17.4359C39.1109 17.4582 39.089 17.4802 39.068 17.5018C39.3015 17.5289 39.64 17.4908 40.13 17.2995C40.7021 17.076 40.9137 16.8378 40.9941 16.6429C40.9479 16.6416 40.8937 16.642 40.8315 16.6452Z" fill="white"/>
</g>
<defs>
<clipPath id="clip0_4094_11639">
<rect width="50" height="50" fill="white"/>
</clipPath>
</defs>
</svg>
