<svg width="270" height="156" viewBox="0 0 270 156" fill="none" xmlns="http://www.w3.org/2000/svg">
<path d="M114.816 14.1104C115.968 14.1047 116.977 14.6247 117.81 15.3526C119.065 16.448 120.339 17.4852 121.631 18.4629C122.869 19.4003 124.2 20.2207 125.623 20.9219C127.212 21.7054 128.724 22.5993 130.154 23.6026C131.436 24.5017 132.749 25.2593 134.093 25.876C135.18 26.3745 136.36 26.4985 137.696 26.2012C139.336 25.8362 140.896 25.4577 142.373 25.0655C143.682 24.7176 144.951 24.1329 146.181 23.2979C147.513 22.3939 148.806 21.4278 150.057 20.4014C151.463 19.2487 152.973 18.3267 154.586 17.6456C156.483 16.8447 158.446 16.8874 160.362 17.7178C162.057 18.4528 163.525 19.4247 164.733 20.6456C166.105 22.0318 166.794 23.8076 166.872 25.837C166.936 27.4993 167.017 29.1483 167.118 30.7813C167.218 32.3991 167.359 34.0246 167.543 35.6573C167.74 37.4136 167.783 39.1766 167.67 40.9434C167.59 42.1921 167.937 43.2403 168.732 44.1788C169.623 45.2302 170.685 45.968 171.933 46.417C173.385 46.9387 174.888 47.3599 176.442 47.6778C177.912 47.9783 179.417 48.063 180.958 47.9288C182.87 47.7623 184.743 47.9704 186.558 48.5557C188.218 49.0908 189.744 49.6814 191.129 50.3292C192.868 51.1429 194.112 52.5604 194.894 54.4151C195.605 56.1 196.025 57.7724 196.123 59.4239C196.237 61.3531 195.545 63.1259 194.243 64.6924C193.154 66.0014 192.098 67.2631 191.075 68.4737C190.014 69.7294 188.858 70.9488 187.61 72.1309C186.405 73.273 185.199 74.4176 183.994 75.5606C183.082 76.4263 182.561 77.48 182.422 78.7969C182.285 80.0866 182.59 81.1772 183.337 82.1602C184.392 83.5499 185.342 85.0087 186.184 86.5352C186.917 87.8619 187.82 89.0818 188.898 90.1963C190.226 91.5687 191.226 93.1288 191.881 94.8692C192.531 96.5978 192.822 98.406 192.757 100.278C192.696 102.025 192.5 103.673 192.161 105.216C191.74 107.131 190.589 108.643 188.883 109.739C187.178 110.833 185.282 111.287 183.259 111.094C181.678 110.943 180.096 110.906 178.516 110.984C176.895 111.065 175.272 111.202 173.65 111.396C172.125 111.578 170.707 111.936 169.395 112.462C168.358 112.878 166.864 113.812 164.881 115.358C166.227 117.573 167.242 119.331 167.908 120.621C168.817 122.381 169.139 124.274 168.876 126.251C168.642 128.006 168.237 129.729 167.665 131.417C167.047 133.24 166.076 134.778 164.724 135.964C163.513 137.026 162.119 137.972 160.556 138.806C158.949 139.663 157.304 140.238 155.631 140.51C154.003 140.774 152.296 140.82 150.517 140.658C148.767 140.499 147.065 140.193 145.417 139.737C143.608 139.237 141.988 138.331 140.573 137.042C139.437 136.008 138.191 135.112 136.833 134.357C135.308 133.508 133.845 132.574 132.447 131.559C130.828 130.382 129.666 128.814 128.972 126.901C128.741 126.262 128.547 125.761 128.391 125.39C127.667 125.541 126.933 125.582 126.257 125.394C126.183 125.373 126.122 125.36 126.077 125.352C124.979 127.759 124.257 129.599 123.882 130.898C123.296 132.921 122.058 134.478 120.217 135.473C118.688 136.298 117.088 136.988 115.424 137.542C113.789 138.086 112.185 138.514 110.617 138.824C108.921 139.159 107.15 139.186 105.319 138.921C103.527 138.662 101.793 138.2 100.122 137.538C98.3809 136.848 96.8202 135.862 95.451 134.587C94.247 133.466 93.0231 132.368 91.782 131.294C90.3941 130.093 89.2677 128.738 88.4246 127.229C87.6482 125.838 86.9339 124.343 86.2801 122.745C85.5845 121.045 85.1677 119.288 85.034 117.479C84.8943 115.587 85.1917 113.732 85.9109 111.933C86.5361 110.37 87.5754 109.198 88.9754 108.467C88.8048 108.371 88.6298 108.271 88.4529 108.169C87.1206 107.398 85.719 106.719 84.2498 106.134C82.7689 105.544 81.2671 105.049 79.7488 104.649C78.1763 104.236 76.5869 103.835 74.9842 103.448C72.9641 102.96 71.3401 101.821 70.1766 100.089C69.1952 98.6279 68.3304 97.1086 67.5838 95.5323C66.6906 93.6462 66.5703 91.6626 67.2176 89.671C67.7538 88.0212 68.3474 86.4873 69.0008 85.0752C69.7318 83.496 70.8225 82.0896 72.2303 80.8536C73.5269 79.7152 74.8718 78.6439 76.2625 77.6426C77.6016 76.6785 78.9186 75.7122 80.2098 74.7452C81.283 73.941 82.105 72.9182 82.6814 71.6534C83.2926 70.3121 83.6486 68.9433 83.7576 67.542C83.8475 66.3844 83.5259 65.3617 82.7303 64.3975C81.6622 63.1037 80.615 61.7952 79.5896 60.4747C78.5196 59.0965 77.5665 57.6383 76.7313 56.1016C75.9357 54.6377 75.1469 53.1681 74.367 51.6954C73.4423 49.9491 73.0791 48.11 73.3426 46.2217C73.5879 44.4647 74.1964 42.8826 75.1932 41.5196C76.2667 40.0523 77.8087 39.0755 79.6785 38.5254C81.4424 38.0068 83.2377 37.7853 85.0535 37.8663C86.8387 37.946 88.6007 38.2732 90.3318 38.8428C91.7539 39.3106 93.2012 39.5355 94.6766 39.5196C96.1603 39.5034 97.6062 39.2571 99.0164 38.7793C100.399 38.3107 101.5 37.6583 102.358 36.8487C103.136 36.1145 103.695 35.1173 103.986 33.7706C104.335 32.1553 104.672 30.5368 104.996 28.917C105.322 27.2847 105.654 25.6526 105.993 24.0225C106.383 22.1449 107.172 20.4767 108.369 19.0547C109.425 17.8003 110.587 16.5837 111.85 15.4073C112.66 14.6543 113.657 14.1167 114.816 14.1104ZM150.765 111.135C149.569 110.585 148.371 110.446 147.128 110.698C145.529 111.023 143.911 111.344 142.277 111.661C140.595 111.987 138.895 112.231 137.183 112.392C135.974 112.505 135.112 113.002 134.463 113.893C133.544 115.154 132.695 116.411 131.917 117.661C131.268 118.703 130.892 119.881 130.805 121.226C130.762 121.871 130.732 122.381 130.712 122.757C130.729 122.778 130.746 122.795 130.759 122.812C130.843 122.924 130.914 123.039 130.971 123.137C131.083 123.333 131.193 123.563 131.301 123.805C131.518 124.294 131.776 124.958 132.073 125.777C132.55 127.093 133.318 128.115 134.386 128.891C135.675 129.827 137.026 130.69 138.436 131.475C140.014 132.353 141.468 133.397 142.794 134.604C143.84 135.556 145.004 136.2 146.296 136.558C147.747 136.959 149.254 137.232 150.815 137.374C152.348 137.513 153.777 137.469 155.102 137.254C156.381 137.046 157.682 136.6 159.005 135.895C160.372 135.165 161.552 134.359 162.55 133.483C163.407 132.731 164.082 131.71 164.541 130.357C165.045 128.87 165.401 127.356 165.606 125.815C165.782 124.497 165.571 123.286 164.977 122.135C164.284 120.791 163.144 118.827 161.546 116.224C158.766 115 156.641 114.017 155.189 113.277C153.729 112.534 152.253 111.819 150.765 111.135ZM103.377 110.103C101.869 109.898 100.361 109.904 98.8524 110.121C97.2634 110.35 95.7915 110.347 94.5272 109.994H94.1404C94.0663 110.052 94.0003 110.096 93.9549 110.125C93.7264 110.268 93.4616 110.382 93.24 110.468C92.7677 110.651 92.0982 110.859 91.2732 111.089C90.1417 111.405 89.4131 112.058 88.9734 113.157C88.4335 114.508 88.2226 115.862 88.324 117.235C88.4317 118.692 88.7663 120.111 89.3328 121.495C89.941 122.981 90.5987 124.356 91.3045 125.62C91.9439 126.765 92.8164 127.826 93.9412 128.8C95.2126 129.9 96.4659 131.025 97.699 132.173C98.7672 133.167 99.9768 133.933 101.337 134.472C102.766 135.038 104.251 135.434 105.791 135.656C107.291 135.873 108.684 135.844 109.977 135.589C111.398 135.308 112.868 134.916 114.383 134.412C115.868 133.918 117.291 133.304 118.649 132.57C119.695 132.005 120.368 131.173 120.713 129.981C121.16 128.437 121.975 126.389 123.129 123.868C121.188 121.937 119.698 120.427 118.67 119.344C117.555 118.169 116.399 117.03 115.203 115.928C114.026 114.843 112.792 113.829 111.5 112.886C110.297 112.008 109.067 111.395 107.811 111.028C106.442 110.628 104.963 110.318 103.377 110.103ZM55.0096 103.931C55.9196 103.939 56.6532 104.684 56.6463 105.594L56.6453 105.667C56.7415 108.907 56.7498 111.402 56.6639 113.123C56.5815 114.773 56.5139 116.424 56.4607 118.074C56.4499 118.411 56.4422 118.748 56.4353 119.084C57.5167 119.804 58.5989 120.524 59.6795 121.245C61.0118 122.134 62.2237 122.831 63.3143 123.346C63.8852 123.615 64.312 123.813 64.5965 123.941C64.7834 123.97 65.1052 124.067 65.2713 124.203C65.5253 124.357 65.7226 124.571 65.8572 124.814C66.1909 125.208 66.2387 125.772 65.9764 126.217L65.8201 126.482C65.5632 126.917 65.185 127.113 64.9607 127.194C64.7418 127.274 64.554 127.288 64.4607 127.292C64.2751 127.299 64.1286 127.273 64.0818 127.264C63.9694 127.242 63.8785 127.213 63.8494 127.203C63.7751 127.179 63.7032 127.15 63.657 127.131C63.5537 127.089 63.4188 127.029 63.2664 126.96C62.9547 126.82 62.4986 126.608 61.907 126.329C60.6362 125.73 59.2814 124.946 57.8484 123.989C57.3811 123.677 56.9126 123.365 56.4451 123.054C56.486 124.647 56.5778 126.242 56.7225 127.836C56.8002 128.693 56.8423 129.439 56.8426 130.06C56.8428 130.649 56.8066 131.243 56.6726 131.736L56.6658 131.763L56.657 131.79L56.4949 132.313C56.4047 133.14 55.7021 133.783 54.8514 133.781C53.9409 133.778 53.2043 133.038 53.2068 132.127V132.027L53.2078 131.781L53.281 131.546L53.492 130.863C53.509 130.792 53.5439 130.554 53.5437 130.061C53.5436 129.575 53.5101 128.937 53.4373 128.134C53.2834 126.437 53.1858 124.74 53.1443 123.043C53.1264 122.311 53.1199 121.578 53.1199 120.846C51.7928 119.993 49.9181 118.871 47.4861 117.477L47.4754 117.471L47.4637 117.464L47.3777 117.412C46.5956 116.946 46.3384 115.935 46.8035 115.152C47.2693 114.37 48.2818 114.112 49.0642 114.577L49.1277 114.615L51.1189 115.77C51.8768 116.214 52.5708 116.629 53.199 117.011C53.2472 115.66 53.3025 114.309 53.3699 112.958C53.4494 111.365 53.444 108.965 53.3475 105.73L53.3465 105.698L53.3475 105.667V105.567C53.3549 104.657 54.0994 103.924 55.0096 103.931ZM201.514 115.481C202.025 115.181 202.518 115.24 202.681 115.266C203.044 115.323 203.355 115.486 203.499 115.563C203.867 115.76 204.337 116.078 204.867 116.463C206.15 117.396 207.163 118.64 207.924 120.144C208.759 121.795 208.979 123.607 208.65 125.51C208.469 126.559 208.052 127.518 207.334 128.29C206.616 129.062 205.689 129.546 204.655 129.803C202.804 130.262 200.96 130.221 199.156 129.671C197.097 129.043 195.724 127.612 195.231 125.519C194.808 123.719 194.881 121.927 195.454 120.179C195.854 118.958 196.76 118.047 197.87 117.376C198.708 116.869 199.725 116.46 200.886 116.128C201.015 115.889 201.215 115.657 201.514 115.481ZM202.764 119.05C201.304 119.384 200.265 119.782 199.577 120.198C198.896 120.61 198.666 120.97 198.589 121.206C198.206 122.373 198.156 123.547 198.442 124.763C198.659 125.685 199.153 126.222 200.118 126.517C201.338 126.888 202.575 126.92 203.861 126.602C204.395 126.469 204.715 126.263 204.919 126.044C205.122 125.825 205.306 125.49 205.4 124.947C205.622 123.663 205.46 122.581 204.98 121.632C204.426 120.536 203.736 119.719 202.928 119.131C202.884 119.1 202.842 119.069 202.802 119.04L202.764 119.05ZM114.834 17.4082C114.744 17.4088 114.505 17.4436 114.097 17.8223C112.926 18.9131 111.857 20.0325 110.892 21.1788C110.068 22.158 109.508 23.3189 109.222 24.6934C108.885 26.3154 108.555 27.9394 108.23 29.5635C107.903 31.2002 107.564 32.8356 107.211 34.4678C106.8 36.3679 105.952 37.9922 104.622 39.2481C103.372 40.4279 101.84 41.3048 100.074 41.9034C98.335 42.4924 96.5443 42.7985 94.7117 42.8184C92.8704 42.8383 91.0638 42.5553 89.3016 41.9756C87.8487 41.4975 86.3836 41.2282 84.907 41.1622C83.4611 41.0977 82.0295 41.2729 80.6092 41.6905C79.295 42.0771 78.4225 42.6919 77.8553 43.4668C77.2115 44.3472 76.787 45.4046 76.6092 46.6778C76.4499 47.8199 76.6526 48.9638 77.282 50.1524C78.0564 51.6146 78.8388 53.0729 79.6287 54.5264C80.379 55.9069 81.2348 57.2154 82.1951 58.4522C83.2002 59.7466 84.2271 61.0285 85.2742 62.2969C86.593 63.8947 87.2054 65.7556 87.0467 67.7979C86.9067 69.597 86.4481 71.3414 85.6824 73.0215C84.882 74.7777 83.7132 76.2416 82.1873 77.3848C80.8792 78.3646 79.5458 79.3435 78.1902 80.3194C76.8862 81.2583 75.6237 82.2641 74.4061 83.3331C73.2996 84.3046 72.5083 85.3498 71.9939 86.461C71.4022 87.7398 70.8551 89.1496 70.3543 90.6905C69.9644 91.8903 70.0364 93.0034 70.5652 94.1202C71.2409 95.5466 72.024 96.9238 72.9148 98.2501C73.6236 99.3047 74.5509 99.9495 75.7586 100.241C77.3829 100.634 78.9941 101.04 80.5887 101.46C82.2379 101.894 83.8662 102.431 85.4695 103.069C87.0844 103.712 88.6308 104.461 90.1053 105.315C91.3068 106.01 92.0532 106.358 92.4344 106.489C92.5896 106.412 92.7341 106.367 92.8416 106.342C93.2345 106.251 93.5979 106.302 93.7693 106.33C94.1799 106.399 94.6778 106.558 95.1932 106.747C95.8323 106.981 96.8544 107.075 98.3826 106.856C100.193 106.595 102.009 106.588 103.82 106.834C105.553 107.07 107.194 107.411 108.736 107.861C110.392 108.345 111.963 109.14 113.445 110.222C114.838 111.239 116.17 112.334 117.438 113.503C118.688 114.655 119.896 115.845 121.062 117.073C122.118 118.185 123.695 119.781 125.797 121.869H127.462C127.477 121.613 127.493 121.326 127.513 121.011C127.634 119.156 128.164 117.448 129.117 115.918C129.94 114.597 130.833 113.274 131.796 111.951C133.028 110.259 134.768 109.306 136.875 109.108C138.48 108.958 140.073 108.729 141.649 108.423C143.274 108.108 144.882 107.789 146.472 107.466C148.416 107.071 150.324 107.302 152.143 108.139C153.671 108.841 155.187 109.574 156.686 110.338C157.992 111.003 159.925 111.9 162.497 113.037C164.726 111.27 166.631 110.018 168.167 109.401C169.764 108.761 171.465 108.335 173.259 108.121C174.956 107.918 176.656 107.775 178.353 107.69C180.093 107.604 181.834 107.644 183.573 107.811C184.868 107.934 186.026 107.654 187.101 106.964C188.174 106.275 188.73 105.461 188.939 104.509C189.23 103.185 189.406 101.737 189.461 100.164C189.511 98.7166 189.287 97.3424 188.794 96.0303C188.305 94.7303 187.554 93.5514 186.527 92.4893C185.25 91.1693 184.172 89.7151 183.297 88.129C182.532 86.7426 181.669 85.4179 180.71 84.1553C179.442 82.4857 178.919 80.553 179.141 78.4502C179.361 76.3755 180.226 74.5883 181.723 73.167C182.929 72.0236 184.136 70.8799 185.342 69.7374C186.505 68.6348 187.577 67.5029 188.556 66.3448C189.572 65.1412 190.624 63.8869 191.708 62.584C192.577 61.5387 192.887 60.5656 192.831 59.6202C192.758 58.3968 192.443 57.0907 191.855 55.6963C191.339 54.472 190.619 53.7329 189.731 53.3174C188.489 52.7367 187.095 52.1947 185.547 51.6954C184.154 51.2464 182.723 51.0863 181.244 51.2149C179.394 51.3761 177.57 51.2749 175.781 50.9092C174.076 50.5605 172.42 50.0978 170.817 49.5215C169.011 48.8723 167.471 47.7927 166.216 46.3106C164.864 44.715 164.244 42.8251 164.378 40.7325C164.478 39.1585 164.441 37.5898 164.265 36.0264C164.076 34.3391 163.929 32.6575 163.826 30.9834C163.724 29.3246 163.641 27.6512 163.576 25.9639C163.525 24.6445 163.105 23.6888 162.389 22.9659C161.51 22.0778 160.405 21.3319 159.05 20.7442C157.915 20.2525 156.89 20.2527 155.869 20.6836C154.563 21.2353 153.323 21.9886 152.149 22.9512C150.821 24.0406 149.449 25.0671 148.034 26.0274C146.518 27.0563 144.911 27.8035 143.22 28.253C141.696 28.6577 140.092 29.0472 138.413 29.4209C136.429 29.8625 134.508 29.6958 132.717 28.8741C131.183 28.17 129.696 27.3112 128.259 26.3028C126.97 25.3984 125.605 24.5908 124.165 23.8809C122.558 23.0889 121.049 22.1586 119.64 21.0928C118.286 20.0673 116.951 18.9818 115.64 17.837C115.194 17.4472 114.933 17.4082 114.834 17.4082ZM216.41 100.474C217.246 100.114 218.217 100.5 218.578 101.335L218.617 101.427L218.658 101.522L218.687 101.622C219.14 103.186 219.56 104.527 219.947 105.652C220.876 105.085 221.86 104.61 222.896 104.236C224.322 103.722 226.394 102.665 229.15 101.001L229.187 100.979L229.225 100.958L229.313 100.91C230.116 100.482 231.117 100.785 231.546 101.588C231.974 102.391 231.67 103.391 230.868 103.82L230.808 103.852C228.025 105.53 225.745 106.716 224.015 107.34C223.009 107.703 222.068 108.182 221.19 108.773C221.787 110.017 222.497 111.205 223.321 112.336C224.348 113.746 225.113 115.043 225.507 116.194C225.665 116.657 225.785 117.013 225.864 117.258C225.903 117.377 225.936 117.485 225.961 117.568C225.972 117.605 225.989 117.666 226.004 117.731C226.009 117.755 226.027 117.835 226.038 117.933C226.042 117.972 226.056 118.102 226.042 118.265C226.035 118.344 226.014 118.517 225.935 118.72C225.868 118.893 225.688 119.254 225.279 119.512C225.269 119.518 225.257 119.525 225.247 119.531C225.217 119.549 225.187 119.57 225.155 119.587L224.925 119.705C224.371 119.99 223.694 119.853 223.296 119.375C223.141 119.24 223.008 119.074 222.909 118.88L222.863 118.791C222.672 118.583 222.633 118.202 222.638 118.014C222.572 117.816 222.489 117.565 222.386 117.262C222.149 116.57 221.607 115.585 220.655 114.279C219.836 113.155 219.115 111.978 218.49 110.751C217.652 111.284 216.783 111.73 215.885 112.083L214.044 113.151L213.958 113.202C213.281 113.595 212.442 113.45 211.929 112.902L211.91 112.894L211.697 112.619C211.452 112.304 211.32 111.901 211.347 111.482C211.37 111.106 211.513 110.827 211.611 110.672C211.792 110.387 212.02 110.216 212.103 110.155C212.309 110.005 212.55 109.883 212.736 109.795C213.144 109.602 213.73 109.368 214.456 109.102C215.379 108.763 216.282 108.288 217.165 107.673C216.66 106.296 216.121 104.614 215.549 102.642L215.49 102.483C215.239 101.687 215.627 100.812 216.41 100.474ZM119.835 71.3038C120.126 71.3086 120.368 71.3808 120.564 71.4825C120.804 71.481 121.162 71.4653 121.653 71.4258C123.161 71.3048 124.794 71.4079 126.537 71.7129C128.251 72.0131 129.714 72.4349 130.835 73.0303C131.227 73.2392 131.67 73.5674 131.966 74.084C132.284 74.6421 132.336 75.2533 132.206 75.8077C131.984 76.752 131.245 77.5136 130.581 78.0792C129.272 79.1925 127.912 80.2391 126.503 81.2159C125.172 82.1382 123.876 83.1109 122.617 84.1309C121.878 84.7294 121.051 85.2291 120.164 85.3975C119.174 85.5849 118.205 85.3348 117.444 84.626C115.984 83.2656 116.14 81.257 116.709 79.5186C117.202 78.0088 117.573 76.4768 117.82 74.9239C117.951 74.1041 118.045 73.507 118.105 73.1368C118.135 72.9543 118.157 72.8201 118.171 72.7413C118.173 72.7274 118.186 72.6479 118.201 72.584C118.204 72.5721 118.214 72.5261 118.231 72.4708C118.238 72.4494 118.264 72.367 118.308 72.2686C118.328 72.2266 118.387 72.0982 118.495 71.9561C118.556 71.8805 118.725 71.7097 118.838 71.6202C119.025 71.5028 119.525 71.3282 119.835 71.3038ZM125.969 74.962C124.439 74.6943 123.091 74.6198 121.917 74.7139C121.659 74.7346 121.413 74.7491 121.185 74.7608C121.153 74.9667 121.116 75.194 121.077 75.4415C120.802 77.1679 120.391 78.87 119.844 80.544C119.622 81.2206 119.58 81.6662 119.602 81.9307C119.61 82.024 119.626 82.0861 119.641 82.128C119.8 82.0723 120.098 81.9268 120.54 81.5684C121.863 80.4966 123.226 79.4742 124.624 78.5049C125.939 77.593 127.209 76.6157 128.431 75.5762C127.8 75.3516 126.987 75.1403 125.969 74.962ZM39.1883 59.9102C42.3593 59.5442 44.9436 59.5253 46.8016 59.9854C47.7889 60.2302 48.7891 60.6926 49.4236 61.5879C50.1017 62.5453 50.1268 63.6546 49.8523 64.6485C49.5003 65.9221 49.2018 67.3617 48.9598 68.9688C48.7727 70.2112 48.7692 71.198 48.8904 71.9649C48.9586 71.9275 49.0357 71.8843 49.117 71.834C50.4908 70.9848 51.8081 70.0634 53.0652 69.0723C53.8577 68.4479 54.8537 67.9235 55.9725 68.0118C57.1772 68.1076 58.0312 68.8631 58.5818 69.7247C59.5247 71.2002 60.0112 72.9172 60.1004 74.8126C60.1695 76.282 60.5352 76.9456 60.8416 77.2286C60.8983 77.2808 60.9715 77.3299 61.1687 77.3321C61.4112 77.3344 61.8253 77.2597 62.448 76.9766C63.199 76.6352 63.7646 76.3787 64.1404 76.2071C64.3278 76.1215 64.4691 76.0562 64.5613 76.0137C64.5981 75.9967 64.6271 75.9826 64.6463 75.9737L64.6424 75.9766C64.6367 75.9795 64.616 75.9904 64.5916 76.004C64.5802 76.0103 64.5512 76.0267 64.5174 76.0479L64.659 75.9688C64.6559 75.9703 64.6504 75.972 64.6463 75.9737C64.6573 75.9682 64.6678 75.9639 64.6678 75.9639C64.6585 75.9706 64.7169 75.9366 64.7918 75.8956C65.0809 75.6322 65.7291 75.1667 66.2723 75.1895C66.9792 75.2193 67.697 75.5677 67.9461 76.0958C68.0692 76.3568 68.2215 76.6865 68.1453 76.9424C68.1306 76.9917 68.1049 77.0366 68.075 77.0821L68.0877 77.0889L68.0291 77.1465C67.9672 77.2231 67.8873 77.2982 67.7957 77.379L66.5594 78.6124C66.5346 78.6367 66.5065 78.6601 66.4803 78.6827C66.4232 78.7326 66.3775 78.7692 66.3582 78.7833C66.3225 78.8089 66.2909 78.8297 66.2732 78.8409C66.2402 78.8617 66.2111 78.8776 66.198 78.8848C66.174 78.8982 66.1524 78.9095 66.1434 78.9141C66.1271 78.9224 66.1107 78.9301 66.1033 78.9336C66.0886 78.9408 66.0708 78.9498 66.0574 78.9561C66.0289 78.9695 65.9882 78.9882 65.9412 79.0098C65.844 79.0546 65.6986 79.1212 65.5105 79.2071C65.1321 79.3799 64.5646 79.638 63.8133 79.9795C62.0999 80.7584 60.1132 81.0455 58.6033 79.6514C57.3739 78.5157 56.8932 76.813 56.8064 74.9678C56.7397 73.5497 56.3853 72.4133 55.8025 71.501C55.7465 71.4133 55.6994 71.3557 55.6668 71.3204C55.6578 71.3236 55.6456 71.3268 55.6346 71.3311C55.5237 71.376 55.3471 71.4732 55.1072 71.6622C53.7508 72.7315 52.3301 73.7251 50.8504 74.6397C50.0721 75.1207 49.0745 75.5838 48.0457 75.4454C47.4672 75.3671 46.9371 75.1037 46.5252 74.6661C46.1374 74.2536 45.9244 73.7616 45.8045 73.3106C45.4302 71.9016 45.4285 70.2679 45.698 68.4776C45.956 66.7646 46.2802 65.1929 46.6736 63.7696C46.7177 63.6096 46.7185 63.5173 46.7166 63.4805C46.665 63.4355 46.4834 63.3054 46.0086 63.1876C44.7009 62.8637 42.5106 62.8274 39.2928 63.2159L38.9305 63.2598L38.5838 63.1465L38.4881 63.1153C37.6224 62.8326 37.1499 61.902 37.4324 61.0362C37.6805 60.2783 38.4255 59.8216 39.1883 59.9102ZM47.5506 48.3331C47.9804 47.6245 48.8587 47.3566 49.6004 47.67C52.6872 48.2856 55.0611 48.9083 56.6346 49.5596C57.6043 49.9613 58.4403 50.5781 59.0057 51.4649C59.5708 52.3517 59.7769 53.3701 59.7322 54.419C59.6815 55.6118 60.0262 56.1123 60.4295 56.3897C60.8645 56.6883 61.4859 56.8304 62.5799 56.4043C63.5169 56.0396 64.7341 55.8483 65.8035 56.5616C66.8189 57.2397 67.1795 58.3992 67.3064 59.3956C67.5197 61.0701 67.72 62.6617 67.906 64.169C67.9748 64.7258 68.1162 64.9378 68.1687 64.9971C68.1906 65.0216 68.2109 65.0361 68.2391 65.0489C68.2726 65.0639 68.3479 65.09 68.4842 65.0987C69.0489 65.1345 69.4332 65.1415 69.6639 65.1348C70.1303 65.0181 71.1251 64.9541 71.6687 65.5704L71.6775 65.5684L71.7273 65.6553C71.9408 66.0247 71.9926 66.4426 71.909 66.8292L71.91 66.8389L71.8641 67.0401C71.7104 67.7091 71.2284 68.0353 71.0311 68.1475C70.8115 68.272 70.6047 68.3279 70.4939 68.3536C70.2603 68.4075 70.017 68.4243 69.8299 68.4317C69.4307 68.4473 68.8998 68.4302 68.2762 68.3907C67.3051 68.329 66.3897 67.9595 65.7039 67.1885C65.0528 66.4562 64.7495 65.5193 64.6326 64.5723C64.4472 63.0697 64.2477 61.4824 64.035 59.8116C64.0129 59.6388 63.9835 59.5098 63.9568 59.4161C63.9073 59.4306 63.8465 59.4506 63.7771 59.4776C61.9755 60.1793 60.1391 60.1924 58.5603 59.1075C56.9502 58.0003 56.354 56.2336 56.4373 54.2784C56.4596 53.7536 56.3526 53.4386 56.2244 53.2374C56.0962 53.0364 55.8562 52.8078 55.3728 52.6075C54.077 52.0711 51.8911 51.4806 48.7283 50.8575L48.4422 50.8008L48.1922 50.6504L48.1072 50.5987C47.3283 50.1269 47.0791 49.1121 47.5506 48.3331ZM126.912 50.4756C129.089 50.5911 130.898 51.5328 132.191 53.2696C132.84 54.1409 133.28 55.1841 133.15 56.3331C133.02 57.4856 132.355 58.4013 131.521 59.0977C131.418 59.1837 131.312 59.2684 131.208 59.3526C131.365 59.4369 131.525 59.5245 131.687 59.6114C134.413 60.3218 136.301 60.5585 137.464 60.4542C138.056 60.401 138.594 60.354 139.072 60.3116L140.293 59.9522L141.557 59.5577C142.623 59.0416 143.586 58.6656 144.388 58.5176C144.626 58.4737 144.769 58.4245 144.841 58.3926C144.844 58.3911 144.848 58.389 144.85 58.3877C144.998 58.2233 145.263 57.9552 145.614 57.7852C145.827 57.6824 146.34 57.4855 146.954 57.6934C147.54 57.8925 147.841 58.3252 147.98 58.6329L148.031 58.7569L148.107 58.9649C148.418 59.8201 147.975 60.7661 147.121 61.0782C146.955 61.1384 146.784 61.1695 146.617 61.1758C146.099 61.4974 145.509 61.6652 144.986 61.7618C144.678 61.8185 144.187 61.9812 143.485 62.2969C143.381 62.4962 143.252 62.6506 143.137 62.7608C143.042 62.8515 142.94 62.926 142.845 62.9874C142.415 63.676 141.662 64.5403 140.731 65.5118C139.305 67.001 137.496 67.6414 135.467 67.3174C134.276 67.127 133.229 66.4576 132.323 65.5713C131.497 64.7625 130.709 63.6966 129.949 62.4219C129.33 62.0904 128.747 61.7753 128.203 61.4776C127.915 61.653 127.623 61.8254 127.33 61.9883C126.588 62.4005 125.873 62.7244 125.206 62.918C124.661 63.0759 124.051 63.1715 123.439 63.0928C123.408 63.1361 123.378 63.1824 123.346 63.2256C123.052 63.6237 122.642 64.1224 122.135 64.7081C121.468 65.477 120.653 66.0572 119.687 66.3536C118.724 66.6488 117.721 66.6264 116.731 66.376C114.561 65.8261 113.11 63.7911 112.077 61.2247L111.708 61.1114C110.477 61.2907 109.294 60.7474 108.285 60.045C107.532 59.7112 107.131 58.8604 107.379 58.0538C107.647 57.1841 108.57 56.6952 109.44 56.9629L109.536 56.9922L109.802 57.0743L110.026 57.2393C110.429 57.5345 110.739 57.6995 110.96 57.7823C111.129 57.8455 111.214 57.849 111.232 57.8487C111.863 57.7522 112.657 57.6825 113.347 57.9053L113.484 57.9542L113.784 58.0831C113.894 58.1363 114.012 58.2011 114.124 58.2774C114.178 58.3143 114.259 58.3736 114.349 58.4561C116.364 59.0663 117.76 59.2882 118.628 59.2413C119.868 59.1741 120.763 59.1042 121.335 59.0342C121.689 58.9909 122.147 58.9575 122.578 59.0469C122.796 59.0924 123.164 59.2002 123.501 59.4922C123.603 59.5809 123.694 59.6807 123.772 59.7872L123.885 59.8243C123.93 59.8237 124.056 59.8171 124.288 59.75C124.44 59.706 124.617 59.6396 124.818 59.5538C124.498 59.361 124.208 59.1825 123.952 59.0186C123.097 58.4709 122.415 57.7202 122.069 56.7393C121.727 55.7697 121.775 54.7527 122.052 53.7735C122.345 52.734 122.914 51.8146 123.844 51.2022C124.754 50.603 125.828 50.4184 126.912 50.4756ZM135.157 63.6631C135.514 63.9241 135.792 64.0293 135.988 64.0606C136.645 64.1653 137.209 64.072 137.735 63.7403C136.982 63.8057 136.119 63.7762 135.157 63.6631ZM116.442 62.3604C116.867 62.8737 117.247 63.1041 117.542 63.1788C118.057 63.3089 118.434 63.287 118.721 63.1993C119.004 63.112 119.314 62.9255 119.641 62.5479C119.66 62.5266 119.678 62.5033 119.696 62.4825C119.417 62.5003 119.119 62.5173 118.806 62.5342C118.109 62.572 117.316 62.5088 116.442 62.3604ZM215.635 39.0235C216.214 38.3219 217.254 38.2219 217.956 38.8008C218.658 39.3803 218.758 40.4206 218.18 41.1231L218.158 41.1475C216.348 43.8316 214.87 45.8576 213.735 47.1807C212.648 48.4479 211.549 49.7069 210.439 50.9561C210.232 51.1897 210.022 51.4223 209.812 51.6543C210.198 52.302 210.625 52.9287 211.096 53.5333C212.137 54.8715 212.923 55.9353 213.431 56.7042C213.682 57.0823 213.919 57.4797 214.063 57.8477C214.129 58.0155 214.238 58.3276 214.235 58.7002C214.232 59.1301 214.053 59.8684 213.296 60.2696L213.036 60.4073H213.03C212.23 60.8128 211.25 60.506 210.828 59.71L210.781 59.6211L210.679 59.2364C210.516 58.6247 210.272 58.0371 209.953 57.4903C209.562 56.9552 209.078 56.3115 208.493 55.5596C208.138 55.1034 207.806 54.6337 207.491 54.1553C207.328 54.3258 207.166 54.4984 207.002 54.668C205.879 55.8311 204.965 56.8854 204.255 57.8301C203.87 58.3412 203.552 58.7471 203.315 59.0235C203.206 59.1503 203.067 59.3064 202.922 59.4346C202.871 59.4798 202.697 59.6334 202.448 59.7471C202.332 59.8002 202.017 59.9313 201.6 59.8956C201.06 59.8486 200.566 59.5387 200.293 59.0518L200.078 58.67L200.079 58.5752C199.936 58.0628 200.043 57.4907 200.416 57.0567L200.481 56.9805L202.926 54.2227L203.415 53.6797C203.795 53.2557 204.2 52.8206 204.629 52.377C205.032 51.9599 205.431 51.5379 205.827 51.1153C205.797 51.0478 205.765 50.981 205.735 50.9131C205.086 49.4139 204.076 47.2052 202.7 44.2784L202.672 44.2256C202.248 43.4197 202.558 42.4222 203.364 41.9981C204.17 41.5751 205.168 41.8848 205.592 42.6905L205.638 42.7793L205.655 42.8116L205.671 42.8448C206.745 45.1302 207.606 46.9995 208.253 48.4473C209.254 47.3163 210.248 46.178 211.231 45.0323C212.248 43.8469 213.66 41.9262 215.475 39.2295L215.52 39.1631L215.571 39.1006L215.635 39.0235ZM126.738 53.7696C126.121 53.737 125.81 53.8577 125.658 53.9571C125.526 54.0442 125.352 54.2203 125.225 54.669C125.081 55.1791 125.121 55.475 125.18 55.6417C125.234 55.7969 125.364 56.006 125.731 56.2413C126.302 56.607 127.075 57.0664 128.053 57.6202C128.509 57.2893 128.962 56.9382 129.407 56.5665C129.832 56.2115 129.868 56.0032 129.873 55.9629C129.878 55.9184 129.886 55.6974 129.546 55.2403C128.856 54.3149 127.967 53.835 126.738 53.7696ZM199.932 23.2413C199.936 23.2411 199.941 23.2402 199.944 23.2403C199.946 23.2406 199.951 23.2413 199.951 23.2413H200.049C200.756 23.2458 201.177 23.6721 201.312 23.8321C201.467 24.0149 201.549 24.1915 201.582 24.2676C201.655 24.4343 201.693 24.59 201.711 24.668C201.752 24.8488 201.784 25.0621 201.81 25.2706C201.865 25.7045 201.921 26.3252 201.979 27.1124C202.105 28.8088 202.025 30.5467 201.746 32.3213C201.472 34.065 201.077 35.5945 200.542 36.878C200.188 37.7261 199.404 38.755 198 38.7198C196.912 38.6917 196.005 37.9828 195.365 37.3584C194.262 36.2823 193.048 35.355 191.723 34.5762C190.92 34.1049 190.208 33.5717 189.699 32.9502C189.175 32.31 188.788 31.4672 188.915 30.4883L188.969 30.1875C189.125 29.4992 189.491 28.8954 189.914 28.3858C190.404 27.7957 191.053 27.2303 191.807 26.6856C193.326 25.5902 195.597 24.7736 198.447 24.1465C198.629 23.7869 198.939 23.5036 199.316 23.3555C199.41 23.2803 199.528 23.2386 199.648 23.2393L199.932 23.2413ZM198.225 27.584C196.059 28.1249 194.601 28.7382 193.738 29.3604C193.115 29.8102 192.703 30.1904 192.452 30.4922C192.327 30.6429 192.259 30.7534 192.223 30.8233C192.232 30.8343 192.241 30.8479 192.252 30.8614C192.413 31.0577 192.756 31.3578 193.393 31.7325C194.949 32.6464 196.375 33.7355 197.669 34.9971C197.684 35.0115 197.7 35.0256 197.714 35.0391C198.022 34.1622 198.286 33.0907 198.487 31.8086C198.69 30.5209 198.767 29.2741 198.726 28.0674L198.73 27.9932C198.746 27.7204 198.489 27.5124 198.225 27.584Z" fill="#A425E3"/>
</svg>
